<svg xmlns="http://www.w3.org/2000/svg" width="38.078" height="38.078" viewBox="0 0 38.078 38.078"><defs><style>.a{fill:#17848b;}</style></defs><path class="a" d="M8.719,101.367a1.75,1.75,0,1,0-2.475,2.474l7.853,7.853-1.577,1.577-7.853-7.853A3.968,3.968,0,0,1,3.5,102.651s0-11.9,0-11.9a1.75,1.75,0,1,0-3.5,0v14.534l6.048,11.272v3.9H17.923v-7.982a4.588,4.588,0,0,0-1.348-3.267Zm0,0" transform="translate(0 -82.381)"/><path class="a" d="M287.173,89a1.752,1.752,0,0,0-1.75,1.75v11.9a3.979,3.979,0,0,1-1.166,2.767l-7.853,7.853-1.578-1.577,7.853-7.853a1.75,1.75,0,0,0-2.475-2.475l-7.858,7.845A4.588,4.588,0,0,0,271,112.477v7.982h11.875v-3.9l6.048-11.271V90.75A1.752,1.752,0,0,0,287.173,89Zm0,0" transform="translate(-250.845 -82.381)"/><path class="a" d="M125.652,20.229h8.925V14.577h5.652V5.652h-5.652V0h-8.925V5.652H120v8.925h5.652Zm0,0" transform="translate(-111.075)"/></svg>